<mxfile host="app.diagrams.net" modified="2023-05-12T13:09:40.607Z" agent="Mozilla/5.0 (Windows NT 10.0; Win64; x64) AppleWebKit/537.36 (KHTML, like Gecko) Chrome/113.0.0.0 Safari/537.36" etag="xQeDpf-BANkxFsfG3PsH" version="21.2.9" type="device">
  <diagram name="Page-1" id="jr3ReB0tD8OsRymx3ufy">
    <mxGraphModel dx="1985" dy="858" grid="1" gridSize="10" guides="1" tooltips="1" connect="1" arrows="1" fold="1" page="1" pageScale="1" pageWidth="1169" pageHeight="1654" math="0" shadow="0">
      <root>
        <mxCell id="0" />
        <mxCell id="1" parent="0" />
        <mxCell id="9FrHZgVtpIwVvqokSLea-17" value="Level" style="shape=umlLifeline;perimeter=lifelinePerimeter;whiteSpace=wrap;html=1;container=1;dropTarget=0;collapsible=0;recursiveResize=0;outlineConnect=0;portConstraint=eastwest;newEdgeStyle={&quot;edgeStyle&quot;:&quot;elbowEdgeStyle&quot;,&quot;elbow&quot;:&quot;vertical&quot;,&quot;curved&quot;:0,&quot;rounded&quot;:0};" parent="1" vertex="1">
          <mxGeometry x="50" y="10" width="100" height="940" as="geometry" />
        </mxCell>
        <mxCell id="9FrHZgVtpIwVvqokSLea-31" value="&amp;nbsp;" style="html=1;points=[];perimeter=orthogonalPerimeter;outlineConnect=0;targetShapes=umlLifeline;portConstraint=eastwest;newEdgeStyle={&quot;edgeStyle&quot;:&quot;elbowEdgeStyle&quot;,&quot;elbow&quot;:&quot;vertical&quot;,&quot;curved&quot;:0,&quot;rounded&quot;:0};" parent="9FrHZgVtpIwVvqokSLea-17" vertex="1">
          <mxGeometry x="45" y="60" width="10" height="790" as="geometry" />
        </mxCell>
        <mxCell id="9FrHZgVtpIwVvqokSLea-18" value="Room" style="shape=umlLifeline;perimeter=lifelinePerimeter;whiteSpace=wrap;html=1;container=1;dropTarget=0;collapsible=0;recursiveResize=0;outlineConnect=0;portConstraint=eastwest;newEdgeStyle={&quot;edgeStyle&quot;:&quot;elbowEdgeStyle&quot;,&quot;elbow&quot;:&quot;vertical&quot;,&quot;curved&quot;:0,&quot;rounded&quot;:0};" parent="1" vertex="1">
          <mxGeometry x="265" y="10" width="100" height="940" as="geometry" />
        </mxCell>
        <mxCell id="9FrHZgVtpIwVvqokSLea-24" value="" style="html=1;points=[];perimeter=orthogonalPerimeter;outlineConnect=0;targetShapes=umlLifeline;portConstraint=eastwest;newEdgeStyle={&quot;edgeStyle&quot;:&quot;elbowEdgeStyle&quot;,&quot;elbow&quot;:&quot;vertical&quot;,&quot;curved&quot;:0,&quot;rounded&quot;:0};" parent="9FrHZgVtpIwVvqokSLea-18" vertex="1">
          <mxGeometry x="45" y="100" width="10" height="530" as="geometry" />
        </mxCell>
        <mxCell id="9FrHZgVtpIwVvqokSLea-38" value="SelectRoomType()" style="html=1;align=left;spacingLeft=2;endArrow=block;rounded=0;edgeStyle=orthogonalEdgeStyle;curved=0;rounded=0;" parent="9FrHZgVtpIwVvqokSLea-18" edge="1">
          <mxGeometry relative="1" as="geometry">
            <mxPoint x="55" y="210" as="sourcePoint" />
            <Array as="points">
              <mxPoint x="55" y="140" />
              <mxPoint x="85" y="140" />
              <mxPoint x="85" y="180" />
            </Array>
            <mxPoint as="offset" />
            <mxPoint x="55" y="179.9999999999999" as="targetPoint" />
          </mxGeometry>
        </mxCell>
        <mxCell id="9FrHZgVtpIwVvqokSLea-19" value="Shop" style="shape=umlLifeline;perimeter=lifelinePerimeter;whiteSpace=wrap;html=1;container=1;dropTarget=0;collapsible=0;recursiveResize=0;outlineConnect=0;portConstraint=eastwest;newEdgeStyle={&quot;edgeStyle&quot;:&quot;elbowEdgeStyle&quot;,&quot;elbow&quot;:&quot;vertical&quot;,&quot;curved&quot;:0,&quot;rounded&quot;:0};" parent="1" vertex="1">
          <mxGeometry x="695" y="10" width="105" height="940" as="geometry" />
        </mxCell>
        <mxCell id="9FrHZgVtpIwVvqokSLea-20" value="Enemy" style="shape=umlLifeline;perimeter=lifelinePerimeter;whiteSpace=wrap;html=1;container=1;dropTarget=0;collapsible=0;recursiveResize=0;outlineConnect=0;portConstraint=eastwest;newEdgeStyle={&quot;edgeStyle&quot;:&quot;elbowEdgeStyle&quot;,&quot;elbow&quot;:&quot;vertical&quot;,&quot;curved&quot;:0,&quot;rounded&quot;:0};" parent="1" vertex="1">
          <mxGeometry x="555" y="10" width="100" height="940" as="geometry" />
        </mxCell>
        <mxCell id="9FrHZgVtpIwVvqokSLea-21" value="Spawn" style="shape=umlLifeline;perimeter=lifelinePerimeter;whiteSpace=wrap;html=1;container=1;dropTarget=0;collapsible=0;recursiveResize=0;outlineConnect=0;portConstraint=eastwest;newEdgeStyle={&quot;edgeStyle&quot;:&quot;elbowEdgeStyle&quot;,&quot;elbow&quot;:&quot;vertical&quot;,&quot;curved&quot;:0,&quot;rounded&quot;:0};" parent="1" vertex="1">
          <mxGeometry x="845" y="10" width="100" height="940" as="geometry" />
        </mxCell>
        <mxCell id="9FrHZgVtpIwVvqokSLea-25" value="GenerateRoom(Point2D point)" style="html=1;verticalAlign=bottom;startArrow=oval;endArrow=block;startSize=8;edgeStyle=elbowEdgeStyle;elbow=vertical;curved=0;rounded=0;" parent="1" source="9FrHZgVtpIwVvqokSLea-17" target="9FrHZgVtpIwVvqokSLea-24" edge="1">
          <mxGeometry x="0.0026" relative="1" as="geometry">
            <mxPoint x="230" y="110" as="sourcePoint" />
            <Array as="points">
              <mxPoint x="230" y="110" />
            </Array>
            <mxPoint as="offset" />
          </mxGeometry>
        </mxCell>
        <mxCell id="9FrHZgVtpIwVvqokSLea-30" value="NewLevel()" style="html=1;verticalAlign=bottom;endArrow=block;edgeStyle=elbowEdgeStyle;elbow=vertical;curved=0;rounded=0;" parent="1" edge="1">
          <mxGeometry width="80" relative="1" as="geometry">
            <mxPoint x="20" y="80.03999999999999" as="sourcePoint" />
            <mxPoint x="100" y="80.03999999999999" as="targetPoint" />
          </mxGeometry>
        </mxCell>
        <mxCell id="9FrHZgVtpIwVvqokSLea-39" value="alt" style="shape=umlFrame;whiteSpace=wrap;html=1;pointerEvents=0;" parent="1" vertex="1">
          <mxGeometry x="140" y="270" width="810" height="230" as="geometry" />
        </mxCell>
        <mxCell id="9FrHZgVtpIwVvqokSLea-43" value="" style="html=1;points=[];perimeter=orthogonalPerimeter;outlineConnect=0;targetShapes=umlLifeline;portConstraint=eastwest;newEdgeStyle={&quot;edgeStyle&quot;:&quot;elbowEdgeStyle&quot;,&quot;elbow&quot;:&quot;vertical&quot;,&quot;curved&quot;:0,&quot;rounded&quot;:0};" parent="1" vertex="1">
          <mxGeometry x="600" y="300" width="10" height="30" as="geometry" />
        </mxCell>
        <mxCell id="9FrHZgVtpIwVvqokSLea-44" value="GenerateEnemies()" style="html=1;verticalAlign=bottom;endArrow=block;edgeStyle=elbowEdgeStyle;elbow=vertical;curved=0;rounded=0;" parent="1" target="9FrHZgVtpIwVvqokSLea-43" edge="1">
          <mxGeometry x="0.3611" relative="1" as="geometry">
            <mxPoint x="465" y="300" as="sourcePoint" />
            <Array as="points">
              <mxPoint x="320" y="300" />
            </Array>
            <mxPoint as="offset" />
          </mxGeometry>
        </mxCell>
        <mxCell id="9FrHZgVtpIwVvqokSLea-45" value="List&amp;lt;Enemies&amp;gt; Enemies" style="html=1;verticalAlign=bottom;endArrow=open;dashed=1;endSize=8;edgeStyle=elbowEdgeStyle;elbow=vertical;curved=0;rounded=0;" parent="1" source="9FrHZgVtpIwVvqokSLea-43" target="9FrHZgVtpIwVvqokSLea-24" edge="1">
          <mxGeometry relative="1" as="geometry">
            <mxPoint x="530" y="375" as="targetPoint" />
            <Array as="points">
              <mxPoint x="470" y="330" />
            </Array>
          </mxGeometry>
        </mxCell>
        <mxCell id="9FrHZgVtpIwVvqokSLea-46" value="" style="html=1;points=[];perimeter=orthogonalPerimeter;outlineConnect=0;targetShapes=umlLifeline;portConstraint=eastwest;newEdgeStyle={&quot;edgeStyle&quot;:&quot;elbowEdgeStyle&quot;,&quot;elbow&quot;:&quot;vertical&quot;,&quot;curved&quot;:0,&quot;rounded&quot;:0};" parent="1" vertex="1">
          <mxGeometry x="740" y="370" width="10" height="20" as="geometry" />
        </mxCell>
        <mxCell id="9FrHZgVtpIwVvqokSLea-47" value="GenerateShop()" style="html=1;verticalAlign=bottom;endArrow=block;edgeStyle=elbowEdgeStyle;elbow=vertical;curved=0;rounded=0;" parent="1" source="9FrHZgVtpIwVvqokSLea-24" target="9FrHZgVtpIwVvqokSLea-46" edge="1">
          <mxGeometry relative="1" as="geometry">
            <mxPoint x="670" y="350" as="sourcePoint" />
            <Array as="points">
              <mxPoint x="620" y="370" />
              <mxPoint x="530" y="360" />
            </Array>
          </mxGeometry>
        </mxCell>
        <mxCell id="9FrHZgVtpIwVvqokSLea-48" value="Shop shop" style="html=1;verticalAlign=bottom;endArrow=open;dashed=1;endSize=8;edgeStyle=elbowEdgeStyle;elbow=vertical;curved=0;rounded=0;" parent="1" source="9FrHZgVtpIwVvqokSLea-46" target="9FrHZgVtpIwVvqokSLea-24" edge="1">
          <mxGeometry relative="1" as="geometry">
            <mxPoint x="670" y="425" as="targetPoint" />
            <Array as="points">
              <mxPoint x="530" y="390" />
            </Array>
          </mxGeometry>
        </mxCell>
        <mxCell id="9FrHZgVtpIwVvqokSLea-50" value="" style="html=1;points=[];perimeter=orthogonalPerimeter;outlineConnect=0;targetShapes=umlLifeline;portConstraint=eastwest;newEdgeStyle={&quot;edgeStyle&quot;:&quot;elbowEdgeStyle&quot;,&quot;elbow&quot;:&quot;vertical&quot;,&quot;curved&quot;:0,&quot;rounded&quot;:0};" parent="1" vertex="1">
          <mxGeometry x="890" y="420" width="10" height="50" as="geometry" />
        </mxCell>
        <mxCell id="9FrHZgVtpIwVvqokSLea-51" value="GenerateSpawn()" style="html=1;verticalAlign=bottom;endArrow=block;edgeStyle=elbowEdgeStyle;elbow=vertical;curved=0;rounded=0;" parent="1" source="9FrHZgVtpIwVvqokSLea-24" target="9FrHZgVtpIwVvqokSLea-50" edge="1">
          <mxGeometry x="0.0012" relative="1" as="geometry">
            <mxPoint x="820" y="400" as="sourcePoint" />
            <Array as="points">
              <mxPoint x="570" y="420" />
              <mxPoint x="650" y="410" />
              <mxPoint x="605" y="400" />
            </Array>
            <mxPoint as="offset" />
          </mxGeometry>
        </mxCell>
        <mxCell id="9FrHZgVtpIwVvqokSLea-52" value="Spawn spawn" style="html=1;verticalAlign=bottom;endArrow=open;dashed=1;endSize=8;edgeStyle=elbowEdgeStyle;elbow=vertical;curved=0;rounded=0;" parent="1" source="9FrHZgVtpIwVvqokSLea-50" target="9FrHZgVtpIwVvqokSLea-24" edge="1">
          <mxGeometry relative="1" as="geometry">
            <mxPoint x="820" y="475" as="targetPoint" />
            <Array as="points">
              <mxPoint x="870" y="470" />
              <mxPoint x="850" y="460" />
              <mxPoint x="710" y="450" />
              <mxPoint x="610" y="430" />
            </Array>
          </mxGeometry>
        </mxCell>
        <mxCell id="9FrHZgVtpIwVvqokSLea-53" value="Player" style="shape=umlLifeline;perimeter=lifelinePerimeter;whiteSpace=wrap;html=1;container=1;dropTarget=0;collapsible=0;recursiveResize=0;outlineConnect=0;portConstraint=eastwest;newEdgeStyle={&quot;edgeStyle&quot;:&quot;elbowEdgeStyle&quot;,&quot;elbow&quot;:&quot;vertical&quot;,&quot;curved&quot;:0,&quot;rounded&quot;:0};" parent="1" vertex="1">
          <mxGeometry x="1050" y="10" width="100" height="940" as="geometry" />
        </mxCell>
        <mxCell id="9FrHZgVtpIwVvqokSLea-54" value="" style="html=1;points=[];perimeter=orthogonalPerimeter;outlineConnect=0;targetShapes=umlLifeline;portConstraint=eastwest;newEdgeStyle={&quot;edgeStyle&quot;:&quot;elbowEdgeStyle&quot;,&quot;elbow&quot;:&quot;vertical&quot;,&quot;curved&quot;:0,&quot;rounded&quot;:0};" parent="9FrHZgVtpIwVvqokSLea-53" vertex="1">
          <mxGeometry x="45" y="415" width="10" height="30" as="geometry" />
        </mxCell>
        <mxCell id="9FrHZgVtpIwVvqokSLea-55" value="startLocation()" style="html=1;verticalAlign=bottom;endArrow=block;edgeStyle=elbowEdgeStyle;elbow=vertical;curved=0;rounded=0;" parent="1" source="9FrHZgVtpIwVvqokSLea-50" target="9FrHZgVtpIwVvqokSLea-54" edge="1">
          <mxGeometry relative="1" as="geometry">
            <mxPoint x="975" y="430" as="sourcePoint" />
            <Array as="points">
              <mxPoint x="980" y="430" />
            </Array>
          </mxGeometry>
        </mxCell>
        <mxCell id="9FrHZgVtpIwVvqokSLea-57" value="Room room" style="html=1;verticalAlign=bottom;endArrow=open;dashed=1;endSize=8;edgeStyle=elbowEdgeStyle;elbow=vertical;curved=0;rounded=0;" parent="1" source="9FrHZgVtpIwVvqokSLea-24" target="9FrHZgVtpIwVvqokSLea-31" edge="1">
          <mxGeometry x="0.4634" relative="1" as="geometry">
            <mxPoint x="250" y="540" as="sourcePoint" />
            <mxPoint x="170" y="540" as="targetPoint" />
            <Array as="points">
              <mxPoint x="250" y="640" />
              <mxPoint x="260" y="630" />
              <mxPoint x="160" y="550" />
            </Array>
            <mxPoint as="offset" />
          </mxGeometry>
        </mxCell>
        <mxCell id="9FrHZgVtpIwVvqokSLea-58" value="Loop" style="shape=umlFrame;whiteSpace=wrap;html=1;pointerEvents=0;" parent="1" vertex="1">
          <mxGeometry x="20" y="90" width="1130" height="560" as="geometry" />
        </mxCell>
        <mxCell id="BqOT-ozc303bb3y5IPSE-1" value="Path" style="shape=umlLifeline;perimeter=lifelinePerimeter;whiteSpace=wrap;html=1;container=1;dropTarget=0;collapsible=0;recursiveResize=0;outlineConnect=0;portConstraint=eastwest;newEdgeStyle={&quot;edgeStyle&quot;:&quot;elbowEdgeStyle&quot;,&quot;elbow&quot;:&quot;vertical&quot;,&quot;curved&quot;:0,&quot;rounded&quot;:0};" parent="1" vertex="1">
          <mxGeometry x="1200" y="10" width="100" height="940" as="geometry" />
        </mxCell>
        <mxCell id="BqOT-ozc303bb3y5IPSE-2" value="" style="html=1;points=[];perimeter=orthogonalPerimeter;outlineConnect=0;targetShapes=umlLifeline;portConstraint=eastwest;newEdgeStyle={&quot;edgeStyle&quot;:&quot;elbowEdgeStyle&quot;,&quot;elbow&quot;:&quot;vertical&quot;,&quot;curved&quot;:0,&quot;rounded&quot;:0};" parent="BqOT-ozc303bb3y5IPSE-1" vertex="1">
          <mxGeometry x="45" y="670" width="10" height="80" as="geometry" />
        </mxCell>
        <mxCell id="BqOT-ozc303bb3y5IPSE-3" value="GeneratePath( List&amp;lt;Point2D&amp;gt; Door )" style="html=1;verticalAlign=bottom;endArrow=block;edgeStyle=elbowEdgeStyle;elbow=vertical;curved=0;rounded=0;" parent="1" source="9FrHZgVtpIwVvqokSLea-31" target="BqOT-ozc303bb3y5IPSE-2" edge="1">
          <mxGeometry relative="1" as="geometry">
            <mxPoint x="1175" y="620" as="sourcePoint" />
            <Array as="points">
              <mxPoint x="1060" y="680" />
              <mxPoint x="630" y="630" />
            </Array>
          </mxGeometry>
        </mxCell>
        <mxCell id="BqOT-ozc303bb3y5IPSE-4" value="Path path" style="html=1;verticalAlign=bottom;endArrow=open;dashed=1;endSize=8;edgeStyle=elbowEdgeStyle;elbow=vertical;curved=0;rounded=0;" parent="1" source="BqOT-ozc303bb3y5IPSE-2" target="9FrHZgVtpIwVvqokSLea-31" edge="1">
          <mxGeometry relative="1" as="geometry">
            <mxPoint x="1175" y="695" as="targetPoint" />
            <Array as="points">
              <mxPoint x="1000" y="760" />
              <mxPoint x="890" y="700" />
            </Array>
          </mxGeometry>
        </mxCell>
        <mxCell id="BqOT-ozc303bb3y5IPSE-10" value="newLevel" style="html=1;verticalAlign=bottom;endArrow=open;dashed=1;endSize=8;edgeStyle=elbowEdgeStyle;elbow=vertical;curved=0;rounded=0;" parent="1" edge="1">
          <mxGeometry relative="1" as="geometry">
            <mxPoint x="95" y="860" as="sourcePoint" />
            <mxPoint x="10" y="860" as="targetPoint" />
            <Array as="points">
              <mxPoint x="80" y="860" />
            </Array>
          </mxGeometry>
        </mxCell>
        <mxCell id="BqOT-ozc303bb3y5IPSE-11" value="Loop" style="shape=umlFrame;whiteSpace=wrap;html=1;pointerEvents=0;" parent="1" vertex="1">
          <mxGeometry x="20" y="660" width="1300" height="110" as="geometry" />
        </mxCell>
        <mxCell id="BqOT-ozc303bb3y5IPSE-12" value="Loop" style="shape=umlFrame;whiteSpace=wrap;html=1;pointerEvents=0;" parent="1" vertex="1">
          <mxGeometry x="240" y="510" width="200" height="110" as="geometry" />
        </mxCell>
        <mxCell id="jk2zQnImMYWHLLycs_MA-2" value="" style="line;strokeWidth=1;fillColor=none;align=left;verticalAlign=middle;spacingTop=-1;spacingLeft=3;spacingRight=3;rotatable=0;labelPosition=right;points=[];portConstraint=eastwest;strokeColor=inherit;" vertex="1" parent="1">
          <mxGeometry x="140" y="336" width="810" height="8" as="geometry" />
        </mxCell>
        <mxCell id="jk2zQnImMYWHLLycs_MA-3" value="" style="line;strokeWidth=1;fillColor=none;align=left;verticalAlign=middle;spacingTop=-1;spacingLeft=3;spacingRight=3;rotatable=0;labelPosition=right;points=[];portConstraint=eastwest;strokeColor=inherit;" vertex="1" parent="1">
          <mxGeometry x="140" y="390" width="810" height="18" as="geometry" />
        </mxCell>
        <mxCell id="jk2zQnImMYWHLLycs_MA-4" value="if RoomType == Enemies" style="text;html=1;strokeColor=none;fillColor=none;align=center;verticalAlign=middle;whiteSpace=wrap;rounded=0;" vertex="1" parent="1">
          <mxGeometry x="130" y="300" width="170" height="30" as="geometry" />
        </mxCell>
        <mxCell id="jk2zQnImMYWHLLycs_MA-5" value="else if RoomType == Shop" style="text;html=1;strokeColor=none;fillColor=none;align=center;verticalAlign=middle;whiteSpace=wrap;rounded=0;" vertex="1" parent="1">
          <mxGeometry x="140" y="360" width="150" height="30" as="geometry" />
        </mxCell>
        <mxCell id="jk2zQnImMYWHLLycs_MA-6" value="else if RoomType == Spawn" style="text;html=1;strokeColor=none;fillColor=none;align=center;verticalAlign=middle;whiteSpace=wrap;rounded=0;" vertex="1" parent="1">
          <mxGeometry x="140" y="430" width="160" height="30" as="geometry" />
        </mxCell>
        <mxCell id="jk2zQnImMYWHLLycs_MA-10" value="setWallOrDoor()" style="html=1;align=left;spacingLeft=2;endArrow=block;rounded=0;edgeStyle=orthogonalEdgeStyle;curved=0;rounded=0;" edge="1" target="9FrHZgVtpIwVvqokSLea-24" parent="1">
          <mxGeometry relative="1" as="geometry">
            <mxPoint x="320" y="535" as="sourcePoint" />
            <Array as="points">
              <mxPoint x="350" y="535" />
              <mxPoint x="350" y="565" />
            </Array>
            <mxPoint x="325" y="564.9999999999999" as="targetPoint" />
            <mxPoint as="offset" />
          </mxGeometry>
        </mxCell>
      </root>
    </mxGraphModel>
  </diagram>
</mxfile>
